<?xml version="1.0" encoding="utf-8"?>
<!-- Generator: Adobe Illustrator 23.0.1, SVG Export Plug-In . SVG Version: 6.00 Build 0)  -->
<svg version="1.1" id="Layer_1" xmlns="http://www.w3.org/2000/svg" xmlns:xlink="http://www.w3.org/1999/xlink" x="0px" y="0px"
	 viewBox="0 0 291 156" style="enable-background:new 0 0 291 156;" xml:space="preserve">
<style type="text/css">
	.st0{fill:none;stroke:#000000;stroke-width:10;stroke-miterlimit:10;}
	.st1{stroke:#000000;stroke-width:0.5;stroke-miterlimit:10;}
	.st2{fill:none;}
	.st3{stroke:#000000;stroke-width:0.25;stroke-miterlimit:10;}
</style>
<g>
	<circle cx="-4.5" cy="332.5" r="5"/>
	<path d="M-4.5,328c2.5,0,4.5,2,4.5,4.5s-2,4.5-4.5,4.5s-4.5-2-4.5-4.5S-7,328-4.5,328 M-4.5,327c-3,0-5.5,2.5-5.5,5.5
		s2.5,5.5,5.5,5.5s5.5-2.5,5.5-5.5S-1.5,327-4.5,327L-4.5,327z"/>
</g>
<g>
	<path d="M-398.2,179.9c-5.1,0-9.2-2.6-9.2-5.7s4.1-5.7,9.2-5.7s9.2,2.6,9.2,5.7S-393.1,179.9-398.2,179.9z"/>
	<path d="M-398.2,169c4.7,0,8.7,2.4,8.7,5.2s-4,5.2-8.7,5.2s-8.7-2.4-8.7-5.2S-402.9,169-398.2,169 M-398.2,168
		c-5.4,0-9.7,2.8-9.7,6.2s4.3,6.2,9.7,6.2s9.7-2.8,9.7-6.2C-388.5,170.8-392.9,168-398.2,168L-398.2,168z"/>
</g>
<g>
	<path d="M-377.6,179.9c-5.1,0-9.2-2.6-9.2-5.7s4.1-5.7,9.2-5.7s9.2,2.6,9.2,5.7S-372.5,179.9-377.6,179.9z"/>
	<path d="M-377.6,169c4.7,0,8.7,2.4,8.7,5.2s-4,5.2-8.7,5.2s-8.7-2.4-8.7-5.2S-382.3,169-377.6,169 M-377.6,168
		c-5.4,0-9.7,2.8-9.7,6.2s4.3,6.2,9.7,6.2s9.7-2.8,9.7-6.2C-367.9,170.8-372.3,168-377.6,168L-377.6,168z"/>
</g>
<g>
	<path d="M-357,179.9c-5.1,0-9.2-2.6-9.2-5.7s4.1-5.7,9.2-5.7s9.2,2.6,9.2,5.7S-352,179.9-357,179.9z"/>
	<path d="M-357,169c4.7,0,8.7,2.4,8.7,5.2s-4,5.2-8.7,5.2s-8.7-2.4-8.7-5.2S-361.7,169-357,169 M-357,168c-5.4,0-9.7,2.8-9.7,6.2
		s4.3,6.2,9.7,6.2s9.7-2.8,9.7-6.2S-351.7,168-357,168L-357,168z"/>
</g>
<g>
	<path d="M-355.7,212.5c-5.1,0-9.2-2.6-9.2-5.7s4.1-5.7,9.2-5.7s9.2,2.6,9.2,5.7S-350.6,212.5-355.7,212.5z"/>
	<path d="M-355.7,201.6c4.7,0,8.7,2.4,8.7,5.2s-4,5.2-8.7,5.2s-8.7-2.4-8.7-5.2S-360.4,201.6-355.7,201.6 M-355.7,200.6
		c-5.4,0-9.7,2.8-9.7,6.2s4.3,6.2,9.7,6.2s9.7-2.8,9.7-6.2S-350.3,200.6-355.7,200.6L-355.7,200.6z"/>
</g>
<g>
	<path d="M-378.6,212.5c-5.1,0-9.2-2.6-9.2-5.7s4.1-5.7,9.2-5.7s9.2,2.6,9.2,5.7S-373.5,212.5-378.6,212.5z"/>
	<path d="M-378.6,201.6c4.7,0,8.7,2.4,8.7,5.2s-4,5.2-8.7,5.2s-8.7-2.4-8.7-5.2S-383.3,201.6-378.6,201.6 M-378.6,200.6
		c-5.4,0-9.7,2.8-9.7,6.2s4.3,6.2,9.7,6.2s9.7-2.8,9.7-6.2C-368.9,203.3-373.3,200.6-378.6,200.6L-378.6,200.6z"/>
</g>
<g>
	<path d="M-399.3,212.5c-5.1,0-9.2-2.6-9.2-5.7s4.1-5.7,9.2-5.7s9.2,2.6,9.2,5.7S-394.3,212.5-399.3,212.5z"/>
	<path d="M-399.3,201.6c4.7,0,8.7,2.4,8.7,5.2s-4,5.2-8.7,5.2s-8.7-2.4-8.7-5.2S-404,201.6-399.3,201.6 M-399.3,200.6
		c-5.4,0-9.7,2.8-9.7,6.2s4.3,6.2,9.7,6.2s9.7-2.8,9.7-6.2S-394,200.6-399.3,200.6L-399.3,200.6z"/>
</g>
<g>
	<ellipse cx="-369" cy="188.1" rx="9.2" ry="5.7"/>
	<path d="M-369,182.9c4.7,0,8.7,2.4,8.7,5.2s-4,5.2-8.7,5.2s-8.7-2.4-8.7-5.2S-373.7,182.9-369,182.9 M-369,181.9
		c-5.4,0-9.7,2.8-9.7,6.2s4.3,6.2,9.7,6.2s9.7-2.8,9.7-6.2C-359.3,184.6-363.6,181.9-369,181.9L-369,181.9z"/>
</g>
<g>
	<path d="M-388.6,200.1c-5.1,0-9.2-2.6-9.2-5.7s4.1-5.7,9.2-5.7s9.2,2.6,9.2,5.7S-383.5,200.1-388.6,200.1z"/>
	<path d="M-388.6,189.1c4.7,0,8.7,2.4,8.7,5.2s-4,5.2-8.7,5.2s-8.7-2.4-8.7-5.2S-393.3,189.1-388.6,189.1 M-388.6,188.1
		c-5.4,0-9.7,2.8-9.7,6.2s4.3,6.2,9.7,6.2s9.7-2.8,9.7-6.2S-383.2,188.1-388.6,188.1L-388.6,188.1z"/>
</g>
<g>
	<circle cx="33.5" cy="332.5" r="5"/>
	<path d="M33.5,328c2.5,0,4.5,2,4.5,4.5s-2,4.5-4.5,4.5s-4.5-2-4.5-4.5S31,328,33.5,328 M33.5,327c-3,0-5.5,2.5-5.5,5.5
		s2.5,5.5,5.5,5.5s5.5-2.5,5.5-5.5S36.5,327,33.5,327L33.5,327z"/>
</g>
<g>
	<circle cx="33.5" cy="375.5" r="5"/>
	<path d="M33.5,371c2.5,0,4.5,2,4.5,4.5s-2,4.5-4.5,4.5s-4.5-2-4.5-4.5S31,371,33.5,371 M33.5,370c-3,0-5.5,2.5-5.5,5.5
		s2.5,5.5,5.5,5.5s5.5-2.5,5.5-5.5S36.5,370,33.5,370L33.5,370z"/>
</g>
<g>
	<circle cx="-4.5" cy="375.5" r="5"/>
	<path d="M-4.5,371c2.5,0,4.5,2,4.5,4.5s-2,4.5-4.5,4.5s-4.5-2-4.5-4.5S-7,371-4.5,371 M-4.5,370c-3,0-5.5,2.5-5.5,5.5
		s2.5,5.5,5.5,5.5s5.5-2.5,5.5-5.5S-1.5,370-4.5,370L-4.5,370z"/>
</g>
<polyline class="st0" points="0.5,332.5 27.5,332.5 0.5,375.5 27.5,375.5 "/>
<g>
	<circle cx="8.5" cy="332.5" r="5"/>
	<path d="M8.5,328c2.5,0,4.5,2,4.5,4.5s-2,4.5-4.5,4.5S4,335,4,332.5S6,328,8.5,328 M8.5,327c-3,0-5.5,2.5-5.5,5.5s2.5,5.5,5.5,5.5
		s5.5-2.5,5.5-5.5S11.5,327,8.5,327L8.5,327z"/>
</g>
<g>
	<circle cx="43.5" cy="107.5" r="5"/>
	<path d="M43.5,103c2.5,0,4.5,2,4.5,4.5s-2,4.5-4.5,4.5s-4.5-2-4.5-4.5S41,103,43.5,103 M43.5,102c-3,0-5.5,2.5-5.5,5.5
		s2.5,5.5,5.5,5.5s5.5-2.5,5.5-5.5S46.5,102,43.5,102L43.5,102z"/>
</g>
<g>
	<circle cx="8.5" cy="374.5" r="5"/>
	<path d="M8.5,370c2.5,0,4.5,2,4.5,4.5s-2,4.5-4.5,4.5S4,377,4,374.5S6,370,8.5,370 M8.5,369c-3,0-5.5,2.5-5.5,5.5s2.5,5.5,5.5,5.5
		s5.5-2.5,5.5-5.5S11.5,369,8.5,369L8.5,369z"/>
</g>
<g>
	<circle cx="21.5" cy="332.5" r="5"/>
	<path d="M21.5,328c2.5,0,4.5,2,4.5,4.5s-2,4.5-4.5,4.5s-4.5-2-4.5-4.5S19,328,21.5,328 M21.5,327c-3,0-5.5,2.5-5.5,5.5
		s2.5,5.5,5.5,5.5s5.5-2.5,5.5-5.5S24.5,327,21.5,327L21.5,327z"/>
</g>
<g>
	<circle cx="21.5" cy="375.5" r="5"/>
	<path d="M21.5,371c2.5,0,4.5,2,4.5,4.5s-2,4.5-4.5,4.5s-4.5-2-4.5-4.5S19,371,21.5,371 M21.5,370c-3,0-5.5,2.5-5.5,5.5
		s2.5,5.5,5.5,5.5s5.5-2.5,5.5-5.5S24.5,370,21.5,370L21.5,370z"/>
</g>
<g>
	<circle cx="60.5" cy="125.5" r="5"/>
	<path d="M60.5,121c2.5,0,4.5,2,4.5,4.5s-2,4.5-4.5,4.5s-4.5-2-4.5-4.5S58,121,60.5,121 M60.5,120c-3,0-5.5,2.5-5.5,5.5
		s2.5,5.5,5.5,5.5s5.5-2.5,5.5-5.5S63.5,120,60.5,120L60.5,120z"/>
</g>
<g>
	<circle cx="28.5" cy="88.5" r="5"/>
	<path d="M28.5,84c2.5,0,4.5,2,4.5,4.5S31,93,28.5,93S24,91,24,88.5S26,84,28.5,84 M28.5,83c-3,0-5.5,2.5-5.5,5.5s2.5,5.5,5.5,5.5
		s5.5-2.5,5.5-5.5S31.5,83,28.5,83L28.5,83z"/>
</g>
<polyline class="st0" points="-195.1,358 -147.9,358 -195.1,401.5 -147.9,401.5 "/>
<text transform="matrix(1 0 0 1 -558.8423 258.123)" style="font-family:'SegoeScript'; font-size:50px;">Z</text>
<path class="st1" d="M28,49v34V49z"/>
<line class="st1" x1="61" y1="49" x2="28" y2="49"/>
<path d="M44.5,49"/>
<line class="st1" x1="44" y1="107" x2="44" y2="49"/>
<path d="M61,128"/>
<path d="M60.5,130"/>
<line class="st1" x1="61" y1="49" x2="61" y2="128"/>
<polyline class="st0" points="-174.5,358.5 -147.5,358.5 -174.5,401.5 -147.5,401.5 "/>
<line class="st1" x1="44" y1="49" x2="43" y2="28"/>
<line class="st2" x1="134" y1="83" x2="136" y2="83"/>
<g>
	<circle cx="43.5" cy="28.5" r="5"/>
	<path d="M43.5,24c2.5,0,4.5,2,4.5,4.5S46,33,43.5,33S39,31,39,28.5S41,24,43.5,24 M43.5,23c-3,0-5.5,2.5-5.5,5.5s2.5,5.5,5.5,5.5
		s5.5-2.5,5.5-5.5S46.5,23,43.5,23L43.5,23z"/>
</g>
<g>
	<g>
		<path class="st3" d="M104.2,85.1c-0.5,2.3-1.6,7.7-2.2,10.8H70.7l-0.4-0.6C78.1,81.9,86,67.9,93.4,54.6h-11
			c-4.4,0-5.3,0.8-6.7,3.5c-0.8,1.4-1.4,2.9-2,4.6h-1.1c0.4-3.1,1-8.7,1.1-11.5h0.8c1,1.4,1.6,1.5,3.7,1.5h24.4l0.2,0.6
			C95.2,66.6,86.6,82,80.1,93.8c1.5,0.1,7.3,0.1,11.2,0.1c3.9,0,5.9-0.4,7.7-2.1c1.3-1.3,3-3.9,4.1-6.9L104.2,85.1z"/>
		<path class="st3" d="M106.6,95.8v-1.1c4.5-0.9,4.8-1.3,4.8-7.5V61.1c0-6.2-0.4-6.7-4.8-7.5v-1.1h17.1v1.1
			c-4.4,0.9-4.9,1.2-4.9,7.5v26.1c0,6.4,0.4,6.7,4.9,7.6v1.1H106.6z"/>
		<path class="st3" d="M164.3,96.3c-0.3,0-2,0-2.7,0c-7.2-0.3-9.1-1.9-11.2-5.4c-2.1-3.6-4-7.3-5.9-11.4c-1.3-2.8-2.2-3.6-4.3-3.6
			h-0.9v11.7c0,5.6,0.4,6.1,4.8,7.2v1.1h-16.9v-1.1c4.4-1.1,4.8-1.5,4.8-7.2V60.8c0-5.6-0.4-6.3-4.8-7.1v-1.1h16.1
			c4.9,0,7.9,0.6,10.4,2.5c2.3,1.7,3.6,4.5,3.6,7.9c0,6.7-4.6,9.7-7.6,11.1c0.9,1.8,4.1,7.9,5.8,10.9c2.3,4.1,3.1,5.4,4.4,7.1
			c1.4,1.8,2.2,2.4,4.6,3.3L164.3,96.3z M140.6,74.3c2.9,0,5-0.3,6.4-1.8c1.7-1.7,2.4-4.1,2.4-7.9c0-7.7-3.5-10.5-6.9-10.5
			c-1.3,0-2.1,0.1-2.5,0.5c-0.4,0.3-0.7,0.8-0.7,2.1v17.6H140.6z"/>
		<path class="st3" d="M199,85.2c-0.6,2.8-2,8.1-2.9,10.1c-1.5,0.3-6.2,1.5-10.2,1.5c-15.5,0-22.2-10.7-22.2-22.4
			c0-13.2,8.8-22.8,22.9-22.8c4.8,0,9.2,1.2,10.6,1.3c0.1,3.4,0.5,7.5,0.8,10.2l-1.1,0.3c-1.2-4.7-2.7-7.3-6.1-9
			c-1.6-0.9-3.4-1.2-5.8-1.2c-9,0-12.8,8.9-12.8,19.9c0,12.8,5.4,22,14.3,22c5.6,0,8.8-3.7,11.5-10.4L199,85.2z"/>
		<path class="st3" d="M223.4,51.6c10.6,0,19.5,9.3,19.5,22.2c0,13.9-8.8,23-19.7,23c-11.6,0-19.9-10-19.9-22.3
			C203.3,63.2,210.7,51.6,223.4,51.6z M222.2,53.3c-5.9,0-10.3,6.5-10.3,19.7c0,12.4,4.6,22.2,12.4,22.2c6,0,10.1-6.7,10.1-19.6
			C234.3,61.6,229.5,53.3,222.2,53.3z"/>
		<path class="st3" d="M287.3,53.6c-4,0.9-4.9,1.7-5,6.2c-0.1,2.1-0.2,3.7-0.2,10.6v26.3h-1.5l-27-35.9v17c0,6.2,0.1,8.1,0.2,10.3
			c0.2,4.5,0.6,5.7,6.2,6.6v1.1h-13.9v-1.1c4.5-0.7,5-1.7,5.2-6.4c0.1-2.4,0.3-5,0.3-10.5V60.4c0-1.4-0.4-2.7-1-3.5
			c-1.6-2.3-2.6-2.8-5.3-3.3v-1.1H257l23.3,30.2V70.5c0-6.9-0.2-8.7-0.2-10.5c-0.2-4.7-1.6-5.6-6.8-6.3v-1.1h14.1V53.6z"/>
	</g>
</g>
</svg>
